<svg id="Layer_1" data-name="Layer 1" xmlns="http://www.w3.org/2000/svg" xmlns:xlink="http://www.w3.org/1999/xlink" viewBox="0 0 116.22 117.17"><defs><style>.cls-1{fill:url(#linear-gradient);}.cls-2{fill:url(#linear-gradient-2);}.cls-3{fill:url(#linear-gradient-3);}.cls-4{fill:#f6c90e;}</style><linearGradient id="linear-gradient" x1="53.93" y1="80.82" x2="116.8" y2="36.12" gradientUnits="userSpaceOnUse"><stop offset="0" stop-color="#252c33"/><stop offset="1" stop-color="#3a4750"/></linearGradient><linearGradient id="linear-gradient-2" x1="82.39" y1="98.6" x2="35.92" y2="22.01" gradientTransform="translate(37.08 -21.21) rotate(30)" gradientUnits="userSpaceOnUse"><stop offset="0" stop-color="#3a4750"/><stop offset="1" stop-color="#252c33"/></linearGradient><linearGradient id="linear-gradient-3" x1="-.58" y1="81.04" x2="62.29" y2="36.35" xlink:href="#linear-gradient"/></defs><rect class="cls-1" x="74.22" width="22.3" height="116.94" rx="11.15"/><rect class="cls-2" x="46.96" y="-7.07" width="22.3" height="131.31" rx="11.15" transform="translate(-21.51 36.9) rotate(-30)"/><rect class="cls-3" x="19.71" y=".23" width="22.3" height="116.94" rx="11.15"/><path class="cls-4" d="M48.82 64.79l5 8.66-.57.73A29 29 0 0142 84.34a26.54 26.54.0 01-2.72 1.22A22.54 22.54.0 0134.7 87a27.72 27.72.0 01-5.68.55A28.52 28.52.0 0119.71 86h0c-.68-.23-1.36-.49-2-.78a29.28 29.28.0 01-9.2-6.17 28.74 28.74.0 01-4.93-6.63c-.39-.71-.74-1.44-1.08-2.19a3 3 0 00-.17-.36v0c-.09-.24-.17-.47-.25-.71a28.71 28.71.0 01.21-21.77s0-.06.0-.09c.21-.46.43-.89.64-1.32s.37-.81.59-1.2A28.62 28.62.0 0117.66 31.9c.67-.29 1.35-.54 2-.78v9.43a20.64 20.64.0 00-9.41 10.11 19.77 19.77.0 00-1.58 7.93 20.22 20.22.0 005.94 14.32 20.38 20.38.0 005 3.71h0c.44.23.89.44 1.35.65A19.72 19.72.0 0029 78.85 18 18 0 0034.7 78a12.49 12.49.0 002.35-1 23.6 23.6.0 005-3.49c.5-.45 1-.92 1.45-1.42C44.42 71.11 46.72 67.85 48.82 64.79z"/><path class="cls-4" d="M116.22 58.59a28.77 28.77.0 01-8.44 20.5 29.6 29.6.0 01-9.22 6.17 21.09 21.09.0 01-2 .78V76.62a20.48 20.48.0 005.07-3.71 20.24 20.24.0 004.35-6.48 19.83 19.83.0 001.58-7.84 19.44 19.44.0 00-1.59-7.93 20.55 20.55.0 00-9.41-10.1 13.29 13.29.0 00-1.37-.66 19.6 19.6.0 00-7.93-1.59 17.86 17.86.0 00-5.75.9 15.29 15.29.0 00-2.26.92 24.47 24.47.0 00-5 3.44c-.51.47-1 1-1.51 1.47-.89.94-3.1 4.09-5.31 7.34l-5-8.61.28-.37A29 29 0 0174.22 32.82a27.44 27.44.0 012.65-1.19 23 23 0 014.59-1.45 26.7 26.7.0 015.62-.57 28.68 28.68.0 018.74 1.33l.69.23a28.87 28.87.0 0113 8.88l.06.06c.38.47.74 1 1.09 1.45.2.27.41.52.59.8.37.53.69 1.08 1 1.64.13.24.29.48.43.72.25.44.45.9.66 1.35s.41.78.58 1.2A28.15 28.15.0 01116.22 58.59z"/></svg>